<?xml version="1.0" encoding="utf-8"?>
<!-- Generator: Adobe Illustrator 18.1.0, SVG Export Plug-In . SVG Version: 6.00 Build 0)  -->
<svg version="1.1" xmlns="http://www.w3.org/2000/svg" xmlns:xlink="http://www.w3.org/1999/xlink" x="0px" y="0px" width="300px"
	 height="200px" viewBox="0 0 300 200" enable-background="new 0 0 300 200" xml:space="preserve">
<g id="白" display="none">
	<g display="inline">
		<g>
			<path d="M143.9,352.5c0.9,0.8,1.5,1.8,1.6,3.2h-1.8c-0.2-0.9-0.6-1.5-1.2-2c-0.6-0.4-1.3-0.6-2.2-0.6c-1.3,0-2.3,0.5-3,1.5
				c-0.6,0.9-1,2.1-1,3.6c0,1.6,0.3,2.8,0.9,3.7c0.7,0.9,1.7,1.4,3.1,1.4c0.9,0,1.7-0.2,2.2-0.7c0.6-0.5,1.1-1.3,1.3-2.3h1.8
				c-0.3,1.5-0.9,2.7-1.9,3.6c-1,0.8-2.1,1.2-3.4,1.2c-2,0-3.5-0.7-4.6-2.1c-0.9-1.2-1.3-2.8-1.3-4.8c0-2,0.4-3.5,1.4-4.8
				c1-1.4,2.5-2.1,4.5-2.1C141.7,351.3,142.9,351.7,143.9,352.5z"/>
			<path d="M153.1,351.5c1.2,0,2.2,0.3,3,0.9c0.8,0.7,1.1,1.6,1.1,2.9c0,0.7-0.2,1.3-0.5,1.8c-0.4,0.6-0.9,1-1.6,1.2v0
				c1.1,0.3,1.7,1,1.9,2.3l0.2,2.1c0.1,0.8,0.3,1.5,0.7,1.9h-2c-0.3-0.4-0.5-1-0.5-1.7l-0.2-1.6c-0.1-0.7-0.3-1.3-0.7-1.6
				c-0.4-0.3-0.9-0.5-1.6-0.5h-3.3v5.4h-1.9v-13.2H153.1z M149.5,357.5h3.3c0.8,0,1.5-0.2,1.9-0.6c0.4-0.4,0.6-0.9,0.6-1.6
				c0-0.7-0.2-1.3-0.6-1.6c-0.4-0.4-1-0.5-1.9-0.5h-3.3V357.5z"/>
			<path d="M168.4,351.5v1.7h-7v3.8h6.6v1.7h-6.6v4.2h7.3v1.7h-9.2v-13.2H168.4z"/>
			<path d="M176.3,351.5l4.8,13.2h-2l-1.2-3.4h-5.3l-1.2,3.4h-2l4.8-13.2H176.3z M177.3,359.6l-2-6h-0.1l-2.1,6H177.3z"/>
			<path d="M191.5,351.5v1.7h-4.1v11.5h-1.9v-11.5h-4.1v-1.7H191.5z"/>
			<path d="M194.9,351.5v13.2H193v-13.2H194.9z"/>
			<path d="M198.2,351.5l3.5,10.9h0.1l3.5-10.9h2l-4.4,13.2h-2.3l-4.4-13.2H198.2z"/>
			<path d="M217.5,351.5v1.7h-7v3.8h6.6v1.7h-6.6v4.2h7.3v1.7h-9.2v-13.2H217.5z"/>
			<path d="M233.2,352.3c0.9,0.7,1.3,1.7,1.5,3.2h-1.9c-0.2-0.8-0.5-1.5-1-1.8c-0.5-0.4-1.2-0.6-2.1-0.6c-0.8,0-1.4,0.1-1.9,0.4
				c-0.5,0.3-0.8,0.8-0.8,1.4c0,0.6,0.3,1.1,0.9,1.4c0.3,0.2,1,0.4,2.1,0.8c1.7,0.6,2.8,1,3.2,1.3c1.1,0.7,1.6,1.6,1.6,2.8
				c0,1.2-0.4,2.1-1.3,2.8c-0.9,0.7-2.1,1-3.6,1c-1.5,0-2.7-0.3-3.5-1c-1-0.8-1.6-2-1.7-3.7h1.9c0.1,1,0.5,1.8,1,2.2
				c0.5,0.4,1.3,0.6,2.3,0.6c0.9,0,1.7-0.2,2.2-0.5c0.6-0.3,0.8-0.8,0.8-1.4c0-0.7-0.4-1.3-1.2-1.7c-0.3-0.1-1.1-0.4-2.5-0.9
				c-1.5-0.5-2.5-0.9-2.8-1.1c-1-0.6-1.4-1.5-1.4-2.6c0-1.2,0.4-2.1,1.4-2.7c0.9-0.6,2-0.9,3.3-0.9
				C231.2,351.3,232.4,351.6,233.2,352.3z"/>
			<path d="M241.8,351.5c2.9,0,4.4,1.3,4.4,4c0,2.7-1.5,4-4.4,4h-3.2v5.1h-1.9v-13.2H241.8z M238.6,357.9h3.1c0.9,0,1.6-0.2,2-0.6
				c0.4-0.4,0.6-1,0.6-1.8c0-0.8-0.2-1.4-0.7-1.7c-0.4-0.4-1.1-0.6-2-0.6h-3.1V357.9z"/>
			<path d="M253.6,351.5l4.8,13.2h-2l-1.2-3.4h-5.3l-1.2,3.4h-2l4.8-13.2H253.6z M254.7,359.6l-2-6h-0.1l-2.1,6H254.7z"/>
			<path d="M268.5,352.5c0.9,0.8,1.5,1.8,1.6,3.2h-1.8c-0.2-0.9-0.6-1.5-1.2-2c-0.6-0.4-1.3-0.6-2.2-0.6c-1.3,0-2.3,0.5-3,1.5
				c-0.6,0.9-1,2.1-1,3.6c0,1.6,0.3,2.8,0.9,3.7c0.7,0.9,1.7,1.4,3.1,1.4c0.9,0,1.7-0.2,2.2-0.7c0.6-0.5,1.1-1.3,1.3-2.3h1.8
				c-0.3,1.5-0.9,2.7-1.9,3.6c-1,0.8-2.1,1.2-3.4,1.2c-2,0-3.5-0.7-4.6-2.1c-0.9-1.2-1.3-2.8-1.3-4.8c0-2,0.4-3.5,1.4-4.8
				c1-1.4,2.5-2.1,4.5-2.1C266.4,351.3,267.6,351.7,268.5,352.5z"/>
			<path d="M281.1,351.5v1.7h-7v3.8h6.6v1.7h-6.6v4.2h7.3v1.7h-9.2v-13.2H281.1z"/>
			<path d="M293.6,351.5c2,0,3.5,0.6,4.5,1.8c1,1.1,1.5,2.7,1.5,4.8c0,2.1-0.5,3.7-1.5,4.8c-1,1.2-2.5,1.8-4.5,1.8h-4.5v-13.2H293.6
				z M291,363h2.2c1.6,0,2.7-0.4,3.4-1.2c0.7-0.8,1.1-2,1.1-3.7c0-1.7-0.4-2.9-1.1-3.7c-0.7-0.8-1.9-1.2-3.4-1.2H291V363z"/>
			<path d="M310.4,351.5v1.7h-7v3.8h6.6v1.7h-6.6v4.2h7.3v1.7h-9.2v-13.2H310.4z"/>
			<path d="M320.3,352.3c0.9,0.7,1.3,1.7,1.5,3.2h-1.9c-0.2-0.8-0.5-1.5-1-1.8c-0.5-0.4-1.2-0.6-2.1-0.6c-0.8,0-1.4,0.1-1.9,0.4
				c-0.5,0.3-0.8,0.8-0.8,1.4c0,0.6,0.3,1.1,0.9,1.4c0.3,0.2,1,0.4,2.1,0.8c1.7,0.6,2.8,1,3.2,1.3c1.1,0.7,1.6,1.6,1.6,2.8
				c0,1.2-0.4,2.1-1.3,2.8c-0.9,0.7-2.1,1-3.6,1c-1.5,0-2.7-0.3-3.5-1c-1-0.8-1.6-2-1.7-3.7h1.9c0.1,1,0.5,1.8,1,2.2
				c0.5,0.4,1.3,0.6,2.3,0.6c0.9,0,1.7-0.2,2.2-0.5c0.6-0.3,0.8-0.8,0.8-1.4c0-0.7-0.4-1.3-1.2-1.7c-0.3-0.1-1.1-0.4-2.5-0.9
				c-1.5-0.5-2.5-0.9-2.8-1.1c-1-0.6-1.4-1.5-1.4-2.6c0-1.2,0.5-2.1,1.4-2.7c0.9-0.6,2-0.9,3.3-0.9
				C318.4,351.3,319.5,351.6,320.3,352.3z"/>
			<path d="M325.7,351.5v13.2h-1.9v-13.2H325.7z"/>
			<path d="M337.2,352.4c0.9,0.7,1.4,1.8,1.7,3.3H337c-0.2-0.9-0.6-1.5-1.1-2c-0.6-0.5-1.4-0.7-2.4-0.7c-1.2,0-2.1,0.4-2.9,1.3
				c-0.8,0.9-1.1,2.2-1.1,3.8c0,1.6,0.3,2.8,1,3.7c0.7,0.9,1.9,1.4,3.4,1.4c0.6,0,1.2-0.1,1.7-0.2c0.5-0.1,1-0.4,1.4-0.6v-2.9h-3.4
				v-1.7h5.3v5.5c-0.6,0.5-1.4,0.9-2.2,1.2c-0.9,0.3-1.9,0.4-3,0.4c-2,0-3.5-0.7-4.6-2c-1-1.2-1.5-2.8-1.5-4.8c0-2,0.5-3.6,1.5-4.9
				c1.1-1.4,2.5-2,4.3-2C335.1,351.3,336.3,351.6,337.2,352.4z"/>
			<path d="M343.1,351.5l6.3,9.8h0.1v-9.8h1.9v13.2h-1.8l-6.4-9.9h-0.1v9.9h-1.9v-13.2H343.1z"/>
		</g>
		<g>
			<path d="M272.5,268.1h-32.2v0h-19.6c-7.5,0-13.6-5.3-13.6-11.7v-1.6c0-6.5,6.1-11.7,13.6-11.7h11.5v-14.3h-11.5
				c-15.4,0-27.9,11.7-27.9,26v1.6c0,14.4,12.5,26,27.9,26h19.6v0h32.2c7.3,0,13.3,5.1,13.3,11.5v2.1c0,6.3-6,11.5-13.3,11.5h-18.8
				v14.3h18.8c15.2,0,27.6-11.6,27.6-25.8v-2.1C300,279.6,287.7,268.1,272.5,268.1z"/>
			<g>
				<path d="M309,321.7h-1.8v-14.3h1.8c18.7,0,34-13.6,34-30.3v-3.7c0-16.7-15.3-30.3-34-30.3h-30.4v14.3h-14.3v-28.6H309
					c26.6,0,48.3,20,48.3,44.6v3.7C357.2,301.7,335.6,321.7,309,321.7z"/>
			</g>
			<g>
				<rect x="235.7" y="307.4" width="14.3" height="14.3"/>
			</g>
			<g>
				<rect x="235.7" y="228.7" width="14.3" height="14.3"/>
			</g>
			<g>
				<path d="M221.4,321.7H177c-26.6,0-48.3-20-48.3-44.6v-3.7c0-24.6,21.7-44.6,48.3-44.6h8.9V243H177c-18.7,0-34,13.6-34,30.3v3.7
					c0,16.7,15.3,30.3,34,30.3h44.4V321.7z"/>
			</g>
		</g>
	</g>
</g>
<g id="黑" display="none">
	<rect x="408.3" y="193" display="inline" width="286.1" height="214.6"/>
	<g display="inline">
		<path fill="#FFFFFF" d="M452,352.5c0.9,0.8,1.5,1.8,1.6,3.2h-1.8c-0.2-0.9-0.6-1.5-1.2-2c-0.6-0.4-1.3-0.6-2.2-0.6
			c-1.3,0-2.3,0.5-3,1.5c-0.6,0.9-1,2.1-1,3.6c0,1.6,0.3,2.8,0.9,3.7c0.7,0.9,1.7,1.4,3.1,1.4c0.9,0,1.7-0.2,2.2-0.7
			c0.6-0.5,1.1-1.3,1.3-2.3h1.8c-0.3,1.5-0.9,2.7-1.9,3.6c-1,0.8-2.1,1.2-3.4,1.2c-2,0-3.5-0.7-4.6-2.1c-0.9-1.2-1.3-2.8-1.3-4.8
			c0-2,0.4-3.5,1.4-4.8c1-1.4,2.5-2.1,4.5-2.1C449.9,351.3,451.1,351.7,452,352.5z"/>
		<path fill="#FFFFFF" d="M461.2,351.5c1.2,0,2.2,0.3,3,0.9c0.8,0.7,1.1,1.6,1.1,2.9c0,0.7-0.2,1.3-0.5,1.8c-0.4,0.6-0.9,1-1.6,1.2
			v0c1.1,0.3,1.7,1,1.9,2.3l0.2,2.1c0.1,0.8,0.3,1.5,0.7,1.9h-2c-0.3-0.4-0.5-1-0.5-1.7l-0.2-1.6c-0.1-0.7-0.3-1.3-0.7-1.6
			c-0.4-0.3-0.9-0.5-1.6-0.5h-3.3v5.4h-1.9v-13.2H461.2z M457.6,357.5h3.3c0.8,0,1.5-0.2,1.9-0.6c0.4-0.4,0.6-0.9,0.6-1.6
			c0-0.7-0.2-1.3-0.6-1.6c-0.4-0.4-1-0.5-1.9-0.5h-3.3V357.5z"/>
		<path fill="#FFFFFF" d="M476.6,351.5v1.7h-7v3.8h6.6v1.7h-6.6v4.2h7.3v1.7h-9.2v-13.2H476.6z"/>
		<path fill="#FFFFFF" d="M484.5,351.5l4.8,13.2h-2l-1.2-3.4h-5.3l-1.2,3.4h-2l4.8-13.2H484.5z M485.5,359.6l-2-6h-0.1l-2.1,6H485.5
			z"/>
		<path fill="#FFFFFF" d="M499.6,351.5v1.7h-4.1v11.5h-1.9v-11.5h-4.1v-1.7H499.6z"/>
		<path fill="#FFFFFF" d="M503,351.5v13.2h-1.9v-13.2H503z"/>
		<path fill="#FFFFFF" d="M506.4,351.5l3.5,10.9h0.1l3.5-10.9h2l-4.4,13.2h-2.3l-4.4-13.2H506.4z"/>
		<path fill="#FFFFFF" d="M525.7,351.5v1.7h-7v3.8h6.6v1.7h-6.6v4.2h7.3v1.7h-9.2v-13.2H525.7z"/>
		<path fill="#FFFFFF" d="M541.3,352.3c0.9,0.7,1.3,1.7,1.5,3.2h-1.9c-0.2-0.8-0.5-1.5-1-1.8c-0.5-0.4-1.2-0.6-2.1-0.6
			c-0.8,0-1.4,0.1-1.9,0.4c-0.5,0.3-0.8,0.8-0.8,1.4c0,0.6,0.3,1.1,0.9,1.4c0.3,0.2,1,0.4,2.1,0.8c1.7,0.6,2.8,1,3.2,1.3
			c1.1,0.7,1.6,1.6,1.6,2.8c0,1.2-0.4,2.1-1.3,2.8c-0.9,0.7-2.1,1-3.6,1c-1.5,0-2.7-0.3-3.5-1c-1-0.8-1.6-2-1.7-3.7h1.9
			c0.1,1,0.5,1.8,1,2.2c0.5,0.4,1.3,0.6,2.3,0.6c0.9,0,1.7-0.2,2.2-0.5c0.6-0.3,0.8-0.8,0.8-1.4c0-0.7-0.4-1.3-1.2-1.7
			c-0.3-0.1-1.1-0.4-2.5-0.9c-1.5-0.5-2.5-0.9-2.8-1.1c-1-0.6-1.4-1.5-1.4-2.6c0-1.2,0.5-2.1,1.4-2.7c0.9-0.6,2-0.9,3.3-0.9
			C539.4,351.3,540.5,351.6,541.3,352.3z"/>
		<path fill="#FFFFFF" d="M550,351.5c2.9,0,4.4,1.3,4.4,4c0,2.7-1.5,4-4.4,4h-3.2v5.1h-1.9v-13.2H550z M546.7,357.9h3.1
			c0.9,0,1.6-0.2,2-0.6c0.4-0.4,0.6-1,0.6-1.8c0-0.8-0.2-1.4-0.7-1.7c-0.4-0.4-1.1-0.6-2-0.6h-3.1V357.9z"/>
		<path fill="#FFFFFF" d="M561.8,351.5l4.8,13.2h-2l-1.2-3.4h-5.3l-1.2,3.4h-2l4.8-13.2H561.8z M562.8,359.6l-2-6h-0.1l-2.1,6H562.8
			z"/>
		<path fill="#FFFFFF" d="M576.7,352.5c0.9,0.8,1.5,1.8,1.6,3.2h-1.8c-0.2-0.9-0.6-1.5-1.2-2c-0.6-0.4-1.3-0.6-2.2-0.6
			c-1.3,0-2.3,0.5-3,1.5c-0.6,0.9-1,2.1-1,3.6c0,1.6,0.3,2.8,0.9,3.7c0.7,0.9,1.7,1.4,3.1,1.4c0.9,0,1.7-0.2,2.2-0.7
			c0.6-0.5,1.1-1.3,1.3-2.3h1.8c-0.3,1.5-0.9,2.7-1.9,3.6c-1,0.8-2.1,1.2-3.4,1.2c-2,0-3.5-0.7-4.6-2.1c-0.9-1.2-1.3-2.8-1.3-4.8
			c0-2,0.4-3.5,1.4-4.8c1-1.4,2.5-2.1,4.5-2.1C574.6,351.3,575.8,351.7,576.7,352.5z"/>
		<path fill="#FFFFFF" d="M589.3,351.5v1.7h-7v3.8h6.6v1.7h-6.6v4.2h7.3v1.7h-9.2v-13.2H589.3z"/>
		<path fill="#FFFFFF" d="M601.8,351.5c2,0,3.5,0.6,4.5,1.8c1,1.1,1.5,2.7,1.5,4.8c0,2.1-0.5,3.7-1.5,4.8c-1,1.2-2.5,1.8-4.5,1.8
			h-4.5v-13.2H601.8z M599.2,363h2.2c1.6,0,2.7-0.4,3.4-1.2c0.7-0.8,1.1-2,1.1-3.7c0-1.7-0.4-2.9-1.1-3.7c-0.7-0.8-1.9-1.2-3.4-1.2
			h-2.3V363z"/>
		<path fill="#FFFFFF" d="M618.5,351.5v1.7h-7v3.8h6.6v1.7h-6.6v4.2h7.3v1.7h-9.2v-13.2H618.5z"/>
		<path fill="#FFFFFF" d="M628.5,352.3c0.9,0.7,1.3,1.7,1.5,3.2h-1.9c-0.2-0.8-0.5-1.5-1-1.8c-0.5-0.4-1.2-0.6-2.1-0.6
			c-0.8,0-1.4,0.1-1.9,0.4c-0.5,0.3-0.8,0.8-0.8,1.4c0,0.6,0.3,1.1,0.9,1.4c0.3,0.2,1,0.4,2.1,0.8c1.7,0.6,2.8,1,3.2,1.3
			c1.1,0.7,1.6,1.6,1.6,2.8c0,1.2-0.4,2.1-1.3,2.8c-0.9,0.7-2.1,1-3.6,1c-1.5,0-2.7-0.3-3.5-1c-1-0.8-1.6-2-1.7-3.7h1.9
			c0.1,1,0.5,1.8,1,2.2c0.5,0.4,1.3,0.6,2.3,0.6c0.9,0,1.7-0.2,2.2-0.5c0.6-0.3,0.8-0.8,0.8-1.4c0-0.7-0.4-1.3-1.2-1.7
			c-0.3-0.1-1.1-0.4-2.5-0.9c-1.5-0.5-2.5-0.9-2.8-1.1c-1-0.6-1.4-1.5-1.4-2.6c0-1.2,0.5-2.1,1.4-2.7c0.9-0.6,2-0.9,3.3-0.9
			C626.5,351.3,627.6,351.6,628.5,352.3z"/>
		<path fill="#FFFFFF" d="M633.9,351.5v13.2H632v-13.2H633.9z"/>
		<path fill="#FFFFFF" d="M645.4,352.4c0.9,0.7,1.4,1.8,1.7,3.3h-1.9c-0.2-0.9-0.6-1.5-1.1-2c-0.6-0.5-1.4-0.7-2.4-0.7
			c-1.2,0-2.1,0.4-2.9,1.3c-0.8,0.9-1.1,2.2-1.1,3.8c0,1.6,0.3,2.8,1,3.7c0.7,0.9,1.9,1.4,3.4,1.4c0.6,0,1.2-0.1,1.7-0.2
			c0.5-0.1,1-0.4,1.4-0.6v-2.9h-3.4v-1.7h5.3v5.5c-0.6,0.5-1.4,0.9-2.2,1.2c-0.9,0.3-1.9,0.4-3,0.4c-2,0-3.5-0.7-4.6-2
			c-1-1.2-1.5-2.8-1.5-4.8c0-2,0.5-3.6,1.5-4.9c1.1-1.4,2.5-2,4.3-2C643.2,351.3,644.5,351.6,645.4,352.4z"/>
		<path fill="#FFFFFF" d="M651.3,351.5l6.3,9.8h0.1v-9.8h1.9v13.2h-1.8l-6.4-9.9h-0.1v9.9h-1.9v-13.2H651.3z"/>
	</g>
	<g display="inline">
		<path fill="#FFFFFF" d="M580.6,268.1h-32.2v0h-19.6c-7.5,0-13.6-5.3-13.6-11.7v-1.6c0-6.5,6.1-11.7,13.6-11.7h11.5v-14.3h-11.5
			c-15.4,0-27.9,11.7-27.9,26v1.6c0,14.4,12.5,26,27.9,26h19.6v0h32.2c7.3,0,13.3,5.1,13.3,11.5v2.1c0,6.3-6,11.5-13.3,11.5h-18.8
			v14.3h18.8c15.2,0,27.6-11.6,27.6-25.8v-2.1C608.2,279.6,595.8,268.1,580.6,268.1z"/>
		<g>
			<path fill="#FFFFFF" d="M617.1,321.7h-1.8v-14.3h1.8c18.7,0,34-13.6,34-30.3v-3.7c0-16.7-15.3-30.3-34-30.3h-30.4v14.3h-14.3
				v-28.6h44.7c26.6,0,48.3,20,48.3,44.6v3.7C665.4,301.7,643.7,321.7,617.1,321.7z"/>
		</g>
		<g>
			<rect x="543.9" y="307.4" fill="#FFFFFF" width="14.3" height="14.3"/>
		</g>
		<g>
			<rect x="543.9" y="228.7" fill="#FFFFFF" width="14.3" height="14.3"/>
		</g>
		<g>
			<path fill="#FFFFFF" d="M529.5,321.7h-44.4c-26.6,0-48.3-20-48.3-44.6v-3.7c0-24.6,21.7-44.6,48.3-44.6h8.9V243h-8.9
				c-18.7,0-34,13.6-34,30.3v3.7c0,16.7,15.3,30.3,34,30.3h44.4V321.7z"/>
		</g>
	</g>
</g>
<g id="圖層_3">
	<g>
		<rect x="141.4" y="112.5" fill="#7DAED3" width="17" height="17"/>
		<rect x="141.4" y="112.5" fill="#7DAED3" width="17" height="17"/>
		<g>
			<rect x="141.4" y="112.5" fill="#7DAED3" width="17" height="17"/>
		</g>
		<g>
			<rect x="141.4" y="112.5" fill="#7DAED3" width="17" height="17"/>
		</g>
		<g>
			<rect x="141.4" y="19" fill="#7DAED3" width="17" height="17"/>
		</g>
		<g>
			<g>
				<path fill="#3E3A39" d="M32.1,166.1c1.1,0.9,1.7,2.2,2,3.8h-2.2c-0.2-1.1-0.7-1.8-1.4-2.3c-0.7-0.5-1.6-0.7-2.6-0.7
					c-1.6,0-2.8,0.6-3.6,1.7c-0.8,1.1-1.1,2.5-1.1,4.3c0,1.9,0.4,3.3,1.1,4.4c0.8,1.1,2,1.6,3.6,1.6c1.1,0,2-0.3,2.7-0.9
					c0.7-0.6,1.3-1.5,1.5-2.8h2.2c-0.3,1.8-1.1,3.2-2.3,4.3c-1.1,1-2.5,1.4-4.1,1.4c-2.4,0-4.2-0.8-5.4-2.5
					c-1.1-1.4-1.6-3.3-1.6-5.7c0-2.3,0.5-4.2,1.6-5.7c1.2-1.7,3-2.5,5.3-2.5C29.6,164.7,31,165.2,32.1,166.1z"/>
				<path fill="#3E3A39" d="M43.1,165c1.5,0,2.7,0.4,3.5,1.1c0.9,0.8,1.4,1.9,1.4,3.4c0,0.8-0.2,1.6-0.6,2.2
					c-0.5,0.7-1.1,1.2-1.9,1.4v0c1.3,0.3,2,1.2,2.2,2.8l0.2,2.5c0.1,1,0.4,1.7,0.9,2.3h-2.4c-0.3-0.5-0.6-1.2-0.6-2.1l-0.2-2
					c-0.1-0.9-0.3-1.5-0.8-1.9c-0.5-0.4-1.1-0.6-1.9-0.6h-4v6.5h-2.2V165H43.1z M38.8,172.2h4c1,0,1.7-0.2,2.2-0.7
					c0.5-0.4,0.7-1.1,0.7-1.9c0-0.9-0.2-1.5-0.7-1.9c-0.5-0.4-1.2-0.6-2.3-0.6h-3.9V172.2z"/>
				<path fill="#3E3A39" d="M61.4,165v2H53v4.6h7.8v2H53v5h8.7v2H50.8V165H61.4z"/>
				<path fill="#3E3A39" d="M70.8,165l5.7,15.7H74l-1.4-4h-6.3l-1.4,4h-2.4l5.7-15.7H70.8z M71.9,174.7l-2.4-7.1h-0.1l-2.4,7.1H71.9
					z"/>
				<path fill="#3E3A39" d="M88.8,165v2h-4.9v13.6h-2.2v-13.6h-4.9v-2H88.8z"/>
				<path fill="#3E3A39" d="M92.8,165v15.7h-2.2V165H92.8z"/>
				<path fill="#3E3A39" d="M96.8,165l4.2,13h0.1l4.2-13h2.4l-5.3,15.7h-2.7L94.4,165H96.8z"/>
				<path fill="#3E3A39" d="M119.7,165v2h-8.3v4.6h7.8v2h-7.8v5h8.7v2h-10.9V165H119.7z"/>
				<path fill="#3E3A39" d="M138.3,165.9c1,0.8,1.6,2.1,1.7,3.8h-2.2c-0.2-1-0.6-1.8-1.2-2.2c-0.6-0.5-1.4-0.7-2.5-0.7
					c-1,0-1.7,0.2-2.2,0.5c-0.6,0.4-0.9,0.9-0.9,1.7c0,0.7,0.3,1.3,1.1,1.7c0.3,0.2,1.2,0.5,2.6,1c2,0.7,3.3,1.2,3.8,1.5
					c1.3,0.8,1.9,1.9,1.9,3.4c0,1.4-0.5,2.5-1.5,3.3c-1,0.8-2.5,1.2-4.3,1.2c-1.8,0-3.2-0.4-4.2-1.1c-1.2-0.9-1.9-2.4-2-4.3h2.2
					c0.2,1.2,0.6,2.1,1.2,2.7c0.6,0.5,1.5,0.7,2.7,0.7c1.1,0,2-0.2,2.7-0.6c0.7-0.4,1-0.9,1-1.6c0-0.9-0.5-1.6-1.4-2.1
					c-0.3-0.2-1.3-0.5-2.9-1.1c-1.8-0.6-2.9-1-3.4-1.3c-1.1-0.7-1.7-1.8-1.7-3.1c0-1.4,0.5-2.5,1.6-3.2c1-0.7,2.3-1.1,3.9-1.1
					C136,164.7,137.4,165.1,138.3,165.9z"/>
				<path fill="#3E3A39" d="M148.6,165c3.5,0,5.2,1.6,5.2,4.8c0,3.2-1.8,4.8-5.3,4.8h-3.8v6.1h-2.2V165H148.6z M144.7,172.6h3.7
					c1.1,0,1.9-0.2,2.4-0.7c0.5-0.4,0.8-1.1,0.8-2.1c0-1-0.3-1.7-0.8-2.1c-0.5-0.4-1.3-0.7-2.4-0.7h-3.7V172.6z"/>
				<path fill="#3E3A39" d="M162.7,165l5.7,15.7h-2.4l-1.4-4h-6.3l-1.4,4h-2.4l5.7-15.7H162.7z M163.9,174.7l-2.4-7.1h-0.1l-2.4,7.1
					H163.9z"/>
				<path fill="#3E3A39" d="M180.4,166.1c1.1,0.9,1.7,2.2,2,3.8h-2.2c-0.2-1.1-0.7-1.8-1.4-2.3c-0.7-0.5-1.6-0.7-2.6-0.7
					c-1.6,0-2.8,0.6-3.6,1.7c-0.8,1.1-1.1,2.5-1.1,4.3c0,1.9,0.4,3.3,1.1,4.4c0.8,1.1,2,1.6,3.6,1.6c1.1,0,2-0.3,2.7-0.9
					c0.7-0.6,1.3-1.5,1.5-2.8h2.2c-0.3,1.8-1.1,3.2-2.3,4.3c-1.1,1-2.5,1.4-4.1,1.4c-2.4,0-4.2-0.8-5.4-2.5
					c-1.1-1.4-1.6-3.3-1.6-5.7c0-2.3,0.5-4.2,1.6-5.7c1.2-1.7,3-2.5,5.3-2.5C177.9,164.7,179.3,165.2,180.4,166.1z"/>
				<path fill="#3E3A39" d="M195.4,165v2h-8.3v4.6h7.8v2h-7.8v5h8.7v2h-10.9V165H195.4z"/>
				<path fill="#3E3A39" d="M210.2,165c2.4,0,4.2,0.7,5.4,2.1c1.2,1.3,1.7,3.2,1.7,5.7c0,2.5-0.6,4.4-1.8,5.7
					c-1.2,1.4-3,2.1-5.4,2.1h-5.3V165H210.2z M207.1,178.7h2.7c1.9,0,3.2-0.5,4.1-1.4c0.8-0.9,1.3-2.4,1.3-4.4c0-2-0.4-3.5-1.3-4.4
					c-0.9-0.9-2.2-1.4-4.1-1.4h-2.7V178.7z"/>
				<path fill="#3E3A39" d="M230.2,165v2h-8.3v4.6h7.8v2h-7.8v5h8.7v2h-10.9V165H230.2z"/>
				<path fill="#3E3A39" d="M241.9,165.9c1,0.8,1.6,2.1,1.7,3.8h-2.2c-0.2-1-0.6-1.8-1.2-2.2c-0.6-0.5-1.4-0.7-2.5-0.7
					c-1,0-1.7,0.2-2.2,0.5c-0.6,0.4-0.9,0.9-0.9,1.7c0,0.7,0.3,1.3,1.1,1.7c0.3,0.2,1.2,0.5,2.6,1c2,0.7,3.3,1.2,3.8,1.5
					c1.3,0.8,1.9,1.9,1.9,3.4c0,1.4-0.5,2.5-1.5,3.3c-1,0.8-2.5,1.2-4.3,1.2c-1.8,0-3.2-0.4-4.2-1.1c-1.2-0.9-1.9-2.4-2-4.3h2.2
					c0.2,1.2,0.6,2.1,1.2,2.7c0.6,0.5,1.5,0.7,2.7,0.7c1.1,0,2-0.2,2.7-0.6c0.7-0.4,1-0.9,1-1.6c0-0.9-0.5-1.6-1.4-2.1
					c-0.3-0.2-1.3-0.5-2.9-1.1c-1.8-0.6-2.9-1-3.4-1.3c-1.1-0.7-1.7-1.8-1.7-3.1c0-1.4,0.5-2.5,1.6-3.2c1-0.7,2.3-1.1,3.9-1.1
					C239.6,164.7,241,165.1,241.9,165.9z"/>
				<path fill="#3E3A39" d="M248.4,165v15.7h-2.2V165H248.4z"/>
				<path fill="#3E3A39" d="M262.1,166.1c1,0.9,1.7,2.2,2,3.9h-2.3c-0.2-1.1-0.7-1.8-1.4-2.4c-0.7-0.5-1.6-0.8-2.8-0.8
					c-1.4,0-2.6,0.5-3.4,1.6c-0.9,1.1-1.3,2.6-1.3,4.5c0,1.9,0.4,3.3,1.2,4.3c0.9,1.1,2.2,1.6,4.1,1.6c0.7,0,1.4-0.1,2-0.3
					c0.6-0.2,1.2-0.4,1.6-0.8v-3.4h-4.1v-2h6.3v6.6c-0.8,0.6-1.6,1.1-2.7,1.5c-1.1,0.4-2.2,0.5-3.5,0.5c-2.3,0-4.2-0.8-5.5-2.4
					c-1.2-1.5-1.8-3.4-1.8-5.7c0-2.3,0.6-4.3,1.8-5.8c1.3-1.6,3-2.4,5.2-2.4C259.5,164.7,261,165.2,262.1,166.1z"/>
				<path fill="#3E3A39" d="M269.1,165l7.5,11.7h0.1V165h2.2v15.7h-2.2l-7.6-11.8H269v11.8h-2.2V165H269.1z"/>
			</g>
			<path fill="#3E3A39" d="M185,65.8h-38.3v0h-23.3c-8.9,0-16.1-6.3-16.1-13.9v-1.9c0-7.7,7.2-13.9,16.1-13.9h18V19h-18
				c-18.3,0-33.1,13.9-33.1,30.9v1.9c0,17.1,14.9,30.9,33.1,30.9h23.3v0H185c8.7,0,15.8,6.1,15.8,13.6v2.5c0,7.5-7.1,13.6-15.8,13.6
				h-26.7v17H185c18.1,0,32.8-13.7,32.8-30.6v-2.5C217.8,79.5,203.1,65.8,185,65.8z"/>
			<g>
				<path fill="#3E3A39" d="M228.4,129.5h-2.1v-17h2.1c22.3,0,40.4-16.2,40.4-36.1v-4.4c0-19.9-18.1-36.1-40.4-36.1h-36.1v17h-17V19
					h53.1c31.7,0,57.4,23.8,57.4,53.1v4.4C285.9,105.7,260.1,129.5,228.4,129.5z"/>
			</g>
			<g>
				<path fill="#3E3A39" d="M124.3,129.5H71.6c-31.7,0-57.4-23.8-57.4-53.1v-4.4C14.1,42.8,39.9,19,71.6,19h10.6v17H71.6
					c-22.3,0-40.4,16.2-40.4,36.1v4.4c0,19.9,18.1,36.1,40.4,36.1h52.7V129.5z"/>
			</g>
		</g>
	</g>
</g>
</svg>
