<?xml version="1.0" encoding="iso-8859-1"?>
<!-- Generator: Adobe Illustrator 18.1.0, SVG Export Plug-In . SVG Version: 6.00 Build 0)  -->
<svg version="1.1" id="&#x5716;&#x5C64;_1" xmlns="http://www.w3.org/2000/svg" xmlns:xlink="http://www.w3.org/1999/xlink" x="0px"
	 y="0px" width="80px" height="80px" viewBox="0 0 80 80" style="enable-background:new 0 0 80 80;" xml:space="preserve">
<g>
	<g>
		<rect x="15.626" y="16.3" style="fill:#8E8E8E;" width="53.572" height="53.572"/>
	</g>
</g>
<g>
	<rect x="13.413" y="13.974" style="fill:#FFFFFF;" width="53.572" height="53.572"/>
	<path style="fill:#606060;" d="M66.985,67.975H13.413c-0.237,0-0.429-0.192-0.429-0.429V13.974c0-0.237,0.192-0.429,0.429-0.429
		h53.572c0.237,0,0.429,0.192,0.429,0.429v53.572C67.414,67.783,67.222,67.975,66.985,67.975z M13.842,67.117h52.714V14.403H13.842
		V67.117z"/>
</g>
<g>
	<path style="fill:#606060;" d="M51.008,58.684c-4.419,0-8.013-3.594-8.013-8.013s3.594-8.014,8.013-8.014s8.014,3.595,8.014,8.014
		S55.427,58.684,51.008,58.684z M51.008,43.515c-3.945,0-7.154,3.21-7.154,7.155c0,3.945,3.21,7.154,7.154,7.154
		c3.946,0,7.155-3.21,7.155-7.154C58.164,46.725,54.954,43.515,51.008,43.515z"/>
</g>
<g>
	<circle style="fill:#606060;" cx="51.009" cy="50.67" r="4.802"/>
</g>
<g>
	<path style="fill:#606060;" d="M51.008,80c-0.475,0-0.859-0.384-0.859-0.859V3.838c0-0.475,0.384-0.859,0.859-0.859
		s0.859,0.384,0.859,0.859v75.304C51.867,79.616,51.483,80,51.008,80z"/>
</g>
<g>
	<path style="fill:#606060;" d="M79.141,51.529H0.936c-0.475,0-0.859-0.384-0.859-0.859s0.384-0.859,0.859-0.859h78.205
		c0.475,0,0.859,0.384,0.859,0.859S79.616,51.529,79.141,51.529z"/>
</g>
<g>
	<path style="fill:#606060;" d="M24.908,29.898c-3.013,0-5.465-2.452-5.465-5.466s2.452-5.466,5.465-5.466
		c3.014,0,5.466,2.452,5.466,5.466S27.922,29.898,24.908,29.898z M24.908,19.825c-2.54,0-4.606,2.067-4.606,4.607
		s2.067,4.607,4.606,4.607c2.54,0,4.607-2.067,4.607-4.607S27.448,19.825,24.908,19.825z"/>
</g>
<g>
	<circle style="fill:#606060;" cx="24.908" cy="24.432" r="2.806"/>
</g>
<g>
	<path style="fill:#606060;" d="M24.908,74.454c-0.475,0-0.859-0.384-0.859-0.859V8.664c0-0.475,0.384-0.859,0.859-0.859
		s0.859,0.384,0.859,0.859v64.931C25.766,74.07,25.382,74.454,24.908,74.454z"/>
</g>
<g>
	<path style="fill:#606060;" d="M73.632,25.673H8.477c-0.475,0-0.859-0.384-0.859-0.859s0.384-0.859,0.859-0.859h65.155
		c0.475,0,0.859,0.384,0.859,0.859S74.107,25.673,73.632,25.673z"/>
</g>
</svg>
