<?xml version="1.0" encoding="iso-8859-1"?>
<!-- Generator: Adobe Illustrator 18.1.0, SVG Export Plug-In . SVG Version: 6.00 Build 0)  -->
<svg version="1.1" id="&#x5716;&#x5C64;_1" xmlns="http://www.w3.org/2000/svg" xmlns:xlink="http://www.w3.org/1999/xlink" x="0px"
	 y="0px" width="80px" height="80px" viewBox="0 0 80 80" style="enable-background:new 0 0 80 80;" xml:space="preserve">
<g>
	<path style="fill:#8E8E8E;" d="M66.131,31.89V7.097H2.619V80h63.512V46.564c0.137-0.201,0.216-0.32,0.216-0.32
		c-0.073-0.025-0.144-0.04-0.216-0.06V44.6c0.879-0.206,1.516-0.197,1.516-0.197c2.599-2.166,4.873-7.255,4.873-7.255
		c-2.382-0.866-5.089,1.191-5.089,1.191c2.815-3.393,5.847-3.249,5.847-3.249c2.599-4.981,6.714-16.243,6.714-16.243
		C75.139,21.963,70.421,26.688,66.131,31.89z"/>
</g>
<g>
	<rect x="0.534" y="4.586" style="fill:#FFFFFF;" width="63.512" height="72.903"/>
	<path style="fill:#606060;" d="M64.046,78.023H0.534C0.239,78.023,0,77.784,0,77.489V4.586c0-0.295,0.239-0.534,0.534-0.534h63.513
		c0.295,0,0.534,0.239,0.534,0.534v72.903C64.58,77.784,64.341,78.023,64.046,78.023z M1.067,76.955h62.445V5.12H1.067V76.955z"/>
</g>
<g>
	<g>
		<path style="fill:#FFFFFF;" d="M44.554,59.868c0,0,15.81-32.269,33.352-43.531c0,0-4.115,11.262-6.714,16.243
			c0,0-3.032-0.144-5.847,3.249c0,0,2.707-2.057,5.089-1.191c0,0-2.274,5.089-4.873,7.255c0,0-3.682-0.072-5.631,3.032
			c0,0,1.835-2.044,4.331-1.191C64.262,43.733,53.217,60.517,44.554,59.868z"/>
		<path style="fill:#606060;" d="M45.05,60.42c-0.18,0-0.359-0.007-0.536-0.02c-0.177-0.014-0.336-0.114-0.423-0.268
			c-0.089-0.153-0.095-0.341-0.017-0.499c0.159-0.324,16.078-32.534,33.542-43.746c0.193-0.124,0.444-0.11,0.622,0.032
			c0.179,0.144,0.246,0.385,0.168,0.6c-0.042,0.113-4.156,11.351-6.742,16.307c-0.097,0.183-0.291,0.314-0.498,0.286
			c-0.001,0-0.001,0-0.002,0c-0.209,0-1.362,0.038-2.812,0.846c0.757-0.124,1.571-0.075,2.264,0.177
			c0.14,0.05,0.251,0.156,0.309,0.293c0.058,0.137,0.056,0.291-0.004,0.426c-0.095,0.213-2.354,5.228-5.017,7.447
			c-0.098,0.082-0.22,0.114-0.351,0.124l0,0c-0.209,0-1.33,0.026-2.567,0.565c0.483,0.005,0.972,0.075,1.45,0.238
			c0.155,0.053,0.278,0.175,0.331,0.331c0.054,0.156,0.032,0.328-0.058,0.466C64.267,44.696,53.819,60.42,45.05,60.42z
			 M76.826,17.709c-15.194,10.754-28.965,36.842-31.41,41.633c7.181-0.4,15.929-12.345,17.964-15.265
			c-1.725-0.202-3.041,1.189-3.053,1.203c-0.187,0.206-0.496,0.237-0.718,0.07c-0.222-0.167-0.278-0.475-0.131-0.71
			c1.827-2.909,5.022-3.241,5.881-3.278c1.917-1.686,3.662-5.03,4.316-6.369c-0.162-0.024-0.327-0.036-0.498-0.036
			c-1.776,0-3.493,1.284-3.51,1.297c-0.214,0.164-0.519,0.14-0.708-0.056c-0.187-0.196-0.198-0.501-0.025-0.71
			c2.412-2.907,4.987-3.365,5.927-3.432C72.835,28.182,75.631,20.894,76.826,17.709z"/>
	</g>
	<g>
		<path style="fill:#606060;" d="M41.306,66.357c-0.087,0-0.174-0.021-0.255-0.066c-0.258-0.141-0.354-0.465-0.213-0.723
			l3.249-5.955c0.14-0.261,0.464-0.354,0.723-0.213c0.258,0.141,0.354,0.465,0.213,0.723l-3.249,5.955
			C41.678,66.257,41.494,66.357,41.306,66.357z"/>
	</g>
</g>
<g>
	<path style="fill:#606060;" d="M55.613,27.547H9.504c-0.295,0-0.534-0.239-0.534-0.534s0.239-0.534,0.534-0.534h46.109
		c0.295,0,0.534,0.239,0.534,0.534S55.908,27.547,55.613,27.547z"/>
</g>
<g>
	<path style="fill:#606060;" d="M26.212,19.427H9.235c-0.295,0-0.534-0.239-0.534-0.534s0.239-0.534,0.534-0.534h16.977
		c0.295,0,0.534,0.239,0.534,0.534S26.507,19.427,26.212,19.427z"/>
</g>
<g>
	<path style="fill:#606060;" d="M32.29,64.443H9.235c-0.295,0-0.534-0.239-0.534-0.534c0-0.295,0.239-0.534,0.534-0.534H32.29
		c0.295,0,0.534,0.239,0.534,0.534C32.824,64.205,32.585,64.443,32.29,64.443z"/>
</g>
<g>
	<path style="fill:#606060;" d="M52.204,34.903h-42.7c-0.295,0-0.534-0.239-0.534-0.534c0-0.295,0.239-0.534,0.534-0.534h42.7
		c0.295,0,0.534,0.239,0.534,0.534C52.738,34.664,52.499,34.903,52.204,34.903z"/>
</g>
<g>
	<path style="fill:#606060;" d="M46.464,42.258H9.504c-0.295,0-0.534-0.239-0.534-0.534c0-0.295,0.239-0.534,0.534-0.534h36.959
		c0.295,0,0.534,0.239,0.534,0.534C46.997,42.019,46.759,42.258,46.464,42.258z"/>
</g>
<g>
	<path style="fill:#606060;" d="M41.306,49.614H9.504c-0.295,0-0.534-0.239-0.534-0.534c0-0.295,0.239-0.534,0.534-0.534h31.801
		c0.295,0,0.534,0.239,0.534,0.534C41.839,49.376,41.601,49.614,41.306,49.614z"/>
</g>
<g>
	<path style="fill:#606060;" d="M37.134,56.97H9.504c-0.295,0-0.534-0.239-0.534-0.534c0-0.295,0.239-0.534,0.534-0.534h27.629
		c0.295,0,0.534,0.239,0.534,0.534C37.667,56.732,37.428,56.97,37.134,56.97z"/>
</g>
</svg>
