<?xml version="1.0" encoding="iso-8859-1"?>
<!-- Generator: Adobe Illustrator 18.1.0, SVG Export Plug-In . SVG Version: 6.00 Build 0)  -->
<svg version="1.1" id="&#x5716;&#x5C64;_1" xmlns="http://www.w3.org/2000/svg" xmlns:xlink="http://www.w3.org/1999/xlink" x="0px"
	 y="0px" width="80px" height="80px" viewBox="0 0 80 80" style="enable-background:new 0 0 80 80;" xml:space="preserve">
<g>
	<path style="fill:#8E8E8E;" d="M68.991,80c0-14.269-4.477-39.289-17.456-43.236c3.105-2.623,5.082-6.541,5.082-10.924
		c0-7.898-6.403-14.301-14.301-14.301s-14.301,6.403-14.301,14.301c0,4.383,1.977,8.301,5.082,10.924
		C20.118,40.711,16.149,65.731,16.149,80H68.991z"/>
</g>
<g>
	<path style="fill:#8E8E8E;" d="M62.786,17.186C60.247,7.599,51.522,0.501,41.149,0.501c-10.432,0-19.197,7.177-21.68,16.845
		c-1.261,0.576-2.144,1.842-2.144,3.316v7.506c0,2.013,1.638,3.651,3.651,3.651s3.651-1.638,3.651-3.651v-7.506
		c0-1.203-0.592-2.263-1.492-2.929c2.253-7.831,9.468-13.582,18.013-13.582c8.646,0,15.923,5.889,18.084,13.86
		c-0.707,0.666-1.155,1.604-1.155,2.651v7.506c0,1.386,0.785,2.58,1.927,3.198c-0.938,2.291-3.099,4.442-5.749,5.515
		c-1.486,0.601-4.103,1.231-6.582-0.264c-0.121-1.082-1.125-2.18-2.596-2.68c-1.837-0.624-3.682-0.081-4.122,1.214
		c-0.44,1.294,0.693,2.849,2.53,3.473c1.029,0.35,2.052,0.322,2.838,0.012c1.429,0.885,3.029,1.347,4.724,1.347
		c1.334,0,2.722-0.279,4.122-0.846c3.484-1.409,6.221-4.283,7.288-7.392c1.666-0.338,2.924-1.813,2.924-3.578v-7.506
		C65.38,19.019,64.282,17.643,62.786,17.186z"/>
</g>
<g>
	<path style="fill:#FFFFFF;" d="M65.404,77.575c0-14.269-4.477-39.289-17.456-43.236c3.105-2.623,5.082-6.541,5.082-10.924
		c0-7.898-6.403-14.301-14.301-14.301s-14.301,6.403-14.301,14.301c0,4.383,1.977,8.301,5.082,10.924
		c-12.979,3.947-18.166,28.967-18.166,43.236H65.404z"/>
	<path style="fill:#606060;" d="M65.405,78.075h-54.06c-0.276,0-0.5-0.224-0.5-0.5c0-15.47,5.499-38.79,17.697-43.433
		c-2.942-2.793-4.614-6.656-4.614-10.728c0-8.161,6.64-14.801,14.801-14.801c8.162,0,14.801,6.64,14.801,14.801
		c0,4.072-1.671,7.935-4.613,10.727c12.444,4.726,16.987,28.366,16.987,43.434C65.905,77.852,65.681,78.075,65.405,78.075z
		 M11.847,77.075h53.056c-0.105-14.575-4.783-38.513-17.1-42.258c-0.175-0.053-0.308-0.198-0.344-0.377
		c-0.037-0.18,0.026-0.365,0.167-0.483c3.116-2.633,4.904-6.476,4.904-10.542c0-7.61-6.191-13.801-13.801-13.801
		s-13.801,6.191-13.801,13.801c0,4.066,1.788,7.909,4.905,10.542c0.14,0.118,0.204,0.303,0.167,0.483
		c-0.037,0.179-0.169,0.324-0.344,0.377C17.502,38.513,11.964,61.569,11.847,77.075z"/>
</g>
<g>
	<path style="fill:#606060;" d="M60.392,16.672C57.854,7.085,49.129-0.013,38.755-0.013c-10.432,0-19.197,7.177-21.68,16.845
		c-1.261,0.576-2.144,1.842-2.144,3.316v7.506c0,2.013,1.638,3.651,3.651,3.651s3.651-1.638,3.651-3.651v-7.506
		c0-1.203-0.592-2.263-1.492-2.929C22.995,9.39,30.21,3.638,38.755,3.638c8.646,0,15.923,5.889,18.084,13.86
		c-0.707,0.666-1.155,1.604-1.155,2.651v7.506c0,1.386,0.785,2.58,1.927,3.198c-0.938,2.291-3.099,4.442-5.749,5.515
		c-1.486,0.601-4.103,1.231-6.582-0.264c-0.121-1.082-1.125-2.18-2.596-2.68c-1.837-0.624-3.682-0.081-4.122,1.214
		c-0.44,1.294,0.693,2.849,2.53,3.473c1.029,0.35,2.052,0.322,2.838,0.012c1.429,0.885,3.029,1.347,4.724,1.347
		c1.334,0,2.722-0.279,4.122-0.846c3.484-1.409,6.221-4.283,7.288-7.392c1.666-0.338,2.924-1.813,2.924-3.578v-7.506
		C62.987,18.505,61.888,17.129,60.392,16.672z"/>
</g>
<g>
	<path style="fill:#606060;" d="M39.551,51.953c-0.128,0-0.256-0.049-0.354-0.146L24.564,37.172c-0.195-0.195-0.195-0.512,0-0.707
		s0.512-0.195,0.707,0L39.905,51.1c0.195,0.195,0.195,0.512,0,0.707C39.807,51.904,39.679,51.953,39.551,51.953z"/>
</g>
<g>
	<path style="fill:#606060;" d="M39.551,51.953c-0.128,0-0.256-0.049-0.354-0.146c-0.195-0.195-0.195-0.512,0-0.707l13.802-13.802
		c0.195-0.195,0.512-0.195,0.707,0s0.195,0.512,0,0.707L39.905,51.807C39.807,51.904,39.679,51.953,39.551,51.953z"/>
</g>
<g>
	<path style="fill:#606060;" d="M39.551,78.075c-0.276,0-0.5-0.224-0.5-0.5V51.453c0-0.276,0.224-0.5,0.5-0.5s0.5,0.224,0.5,0.5
		v26.122C40.051,77.852,39.828,78.075,39.551,78.075z"/>
</g>
</svg>
