<?xml version="1.0" encoding="iso-8859-1"?>
<!-- Generator: Adobe Illustrator 18.1.0, SVG Export Plug-In . SVG Version: 6.00 Build 0)  -->
<svg version="1.1" id="&#x5716;&#x5C64;_1" xmlns="http://www.w3.org/2000/svg" xmlns:xlink="http://www.w3.org/1999/xlink" x="0px"
	 y="0px" width="80px" height="80px" viewBox="0 0 80 80" style="enable-background:new 0 0 80 80;" xml:space="preserve">
<g>
	<path style="fill:#8E8E8E;" d="M80,80c0-11.685-1.673-32.173-12.301-35.405c2.543-2.148,4.162-5.356,4.162-8.946
		c0-6.468-5.243-11.71-11.71-11.71s-11.71,5.243-11.71,11.71c0,3.589,1.619,6.797,4.162,8.946
		C41.973,47.827,40.716,68.315,40.716,80H80z"/>
</g>
<g>
	<path style="fill:#8E8E8E;" d="M26.979,22.49H12.58c-5.5,0-9.999,4.5-9.999,9.999v5.8c0,5.5,4.5,9.999,9.999,9.999h8.799
		c0,0,2.2,4.6,6,5.8c0,0-2-2.6-1.6-5.8h1.2c5.5,0,9.999-4.5,9.999-9.999v-5.8C36.979,26.989,32.479,22.49,26.979,22.49z"/>
</g>
<g>
	<path style="fill:#FFFFFF;" d="M77.405,78.131c0-11.685-1.673-32.173-12.301-35.405c2.543-2.148,4.162-5.356,4.162-8.946
		c0-6.468-5.243-11.71-11.71-11.71s-11.71,5.243-11.71,11.71c0,3.589,1.619,6.797,4.162,8.946
		c-10.628,3.232-11.886,23.72-11.886,35.405H77.405z"/>
	<path style="fill:#606060;" d="M77.405,78.63H38.121c-0.275,0-0.498-0.223-0.498-0.498c0-20.318,3.948-32.587,11.43-35.597
		c-2.365-2.295-3.706-5.44-3.706-8.754c0-6.732,5.477-12.209,12.209-12.209s12.209,5.477,12.209,12.209
		c0,3.313-1.34,6.457-3.705,8.753c10.283,4.089,11.845,23.934,11.845,35.598C77.904,78.407,77.681,78.63,77.405,78.63z
		 M38.621,77.633h38.286c-0.042-9.673-1.35-31.207-11.947-34.43c-0.174-0.054-0.307-0.198-0.343-0.377
		c-0.037-0.178,0.026-0.363,0.166-0.481c2.532-2.139,3.985-5.261,3.985-8.565c0-6.182-5.03-11.212-11.212-11.212
		s-11.212,5.03-11.212,11.212c0,3.304,1.452,6.426,3.985,8.565c0.14,0.118,0.203,0.303,0.166,0.481
		c-0.036,0.179-0.168,0.323-0.343,0.377C42.668,45.479,38.685,57.381,38.621,77.633z"/>
</g>
<g>
	<path style="fill:#FFFFFF;" d="M24.897,20.99H10.498c-5.5,0-9.999,4.5-9.999,9.999v5.8c0,5.5,4.5,9.999,9.999,9.999h8.799
		c0,0,2.2,4.6,6,5.8c0,0-2-2.6-1.6-5.8h1.2c5.5,0,9.999-4.5,9.999-9.999v-5.8C34.896,25.49,30.396,20.99,24.897,20.99z"/>
	<path style="fill:#606060;" d="M25.296,53.086c-0.05,0-0.101-0.008-0.15-0.023c-3.446-1.088-5.592-4.721-6.155-5.776h-8.494
		C4.709,47.286,0,42.578,0,36.789v-5.8c0-5.789,4.709-10.498,10.498-10.498h14.399c5.788,0,10.497,4.709,10.497,10.498v5.8
		c0,5.789-4.709,10.497-10.497,10.497h-0.745c-0.136,2.465,1.183,4.493,1.48,4.916c0.111,0.091,0.182,0.231,0.182,0.385
		c0,0.278-0.246,0.481-0.508,0.498C25.304,53.086,25.3,53.086,25.296,53.086z M10.498,21.488c-5.239,0-9.501,4.262-9.501,9.501v5.8
		c0,5.239,4.262,9.501,9.501,9.501h8.799c0.192,0,0.366,0.11,0.45,0.283c0.018,0.038,1.61,3.3,4.322,4.914
		c-0.543-1.126-1.107-2.832-0.866-4.761c0.031-0.249,0.243-0.436,0.494-0.436h1.2c5.239,0,9.501-4.262,9.501-9.501v-5.8
		c0-5.239-4.262-9.501-9.501-9.501H10.498z"/>
</g>
</svg>
