<?xml version="1.0" encoding="iso-8859-1"?>
<!-- Generator: Adobe Illustrator 18.1.0, SVG Export Plug-In . SVG Version: 6.00 Build 0)  -->
<svg version="1.1" id="&#x5716;&#x5C64;_1" xmlns="http://www.w3.org/2000/svg" xmlns:xlink="http://www.w3.org/1999/xlink" x="0px"
	 y="0px" width="80px" height="80px" viewBox="0 0 80 80" style="enable-background:new 0 0 80 80;" xml:space="preserve">
<g>
	<polygon style="fill:#8E8E8E;" points="39.797,5.82 9.139,22.044 9.139,56.154 39.6,73.184 71.583,54.53 71.583,21.923 	"/>
</g>
<g>
	<polygon style="fill:#FFFFFF;" points="39.511,36.076 9.361,19.594 39.317,3.087 69.661,19.192 	"/>
	<path style="fill:#606060;" d="M39.511,36.47c-0.065,0-0.13-0.016-0.189-0.048L9.172,19.939c-0.126-0.069-0.205-0.201-0.205-0.345
		c0-0.144,0.078-0.277,0.204-0.346L39.127,2.741c0.117-0.064,0.258-0.065,0.375-0.003l30.344,16.105
		c0.128,0.067,0.208,0.199,0.209,0.344c0.002,0.144-0.075,0.278-0.202,0.349l-30.15,16.884C39.644,36.453,39.577,36.47,39.511,36.47
		z M10.181,19.592l29.328,16.033l29.329-16.424L39.321,3.535L10.181,19.592z"/>
</g>
<g>
	<polygon style="fill:#FFFFFF;" points="39.511,70.648 9.151,53.608 9.361,19.594 39.511,36.076 	"/>
	<path style="fill:#606060;" d="M39.511,71.042c-0.066,0-0.133-0.017-0.193-0.051l-30.36-17.04c-0.125-0.07-0.202-0.203-0.201-0.346
		l0.21-34.014c0.001-0.139,0.075-0.267,0.194-0.337c0.121-0.071,0.268-0.073,0.389-0.006l30.15,16.482
		c0.126,0.069,0.205,0.202,0.205,0.346v34.572c0,0.14-0.074,0.27-0.195,0.34C39.649,71.024,39.58,71.042,39.511,71.042z
		 M9.547,53.378l29.57,16.597V36.309L9.751,20.256L9.547,53.378z"/>
</g>
<g>
	<polygon style="fill:#FFFFFF;" points="69.661,53.362 39.511,70.648 39.511,36.076 69.661,19.192 	"/>
	<path style="fill:#606060;" d="M39.511,71.042c-0.069,0-0.136-0.018-0.198-0.053c-0.122-0.071-0.196-0.2-0.196-0.341V36.076
		c0-0.143,0.077-0.274,0.202-0.344l30.15-16.884c0.123-0.07,0.272-0.067,0.392,0.004c0.121,0.07,0.195,0.2,0.195,0.34v34.17
		c0,0.141-0.075,0.272-0.198,0.342L39.708,70.99C39.647,71.024,39.579,71.042,39.511,71.042z M39.906,36.307v33.66l29.362-16.834
		V19.864L39.906,36.307z"/>
</g>
<g>
	<path style="fill:#606060;" d="M18.883,59.459c-0.218,0-0.394-0.176-0.394-0.394V24.799c0-0.218,0.176-0.394,0.394-0.394
		s0.394,0.176,0.394,0.394v34.265C19.278,59.282,19.101,59.459,18.883,59.459z"/>
</g>
<g>
	<path style="fill:#606060;" d="M39.317,48.13c-0.065,0-0.131-0.016-0.191-0.049L9.154,31.474C8.964,31.368,8.895,31.128,9,30.938
		c0.106-0.191,0.347-0.26,0.536-0.154l29.972,16.607c0.19,0.106,0.26,0.346,0.154,0.536C39.59,48.057,39.456,48.13,39.317,48.13z"/>
</g>
<g>
	<path style="fill:#606060;" d="M39.317,58.933c-0.065,0-0.131-0.016-0.191-0.049L9.154,42.277C8.964,42.171,8.895,41.931,9,41.741
		c0.106-0.191,0.347-0.259,0.536-0.154l29.972,16.606c0.19,0.106,0.26,0.346,0.154,0.536C39.59,58.859,39.456,58.933,39.317,58.933z
		"/>
</g>
<g>
	<path style="fill:#606060;" d="M39.6,48.13c-0.139,0-0.273-0.073-0.345-0.203c-0.106-0.19-0.036-0.431,0.154-0.536l29.973-16.607
		c0.189-0.106,0.43-0.037,0.536,0.154c0.106,0.19,0.036,0.431-0.154,0.536L39.791,48.081C39.731,48.114,39.664,48.13,39.6,48.13z"/>
</g>
<g>
	<path style="fill:#606060;" d="M39.6,58.933c-0.139,0-0.273-0.073-0.345-0.203c-0.106-0.19-0.036-0.431,0.154-0.536l29.973-16.606
		c0.189-0.105,0.43-0.037,0.536,0.154c0.106,0.19,0.036,0.431-0.154,0.536L39.791,58.883C39.731,58.916,39.664,58.933,39.6,58.933z"
		/>
</g>
<g>
	<path style="fill:#606060;" d="M28.808,64.886c-0.218,0-0.394-0.176-0.394-0.394V30.226c0-0.218,0.176-0.394,0.394-0.394
		s0.394,0.176,0.394,0.394v34.265C29.202,64.709,29.026,64.886,28.808,64.886z"/>
</g>
<g>
	<path style="fill:#606060;" d="M50.277,64.886c-0.218,0-0.394-0.176-0.394-0.394V30.226c0-0.218,0.176-0.394,0.394-0.394
		s0.394,0.176,0.394,0.394v34.265C50.672,64.709,50.495,64.886,50.277,64.886z"/>
</g>
<g>
	<path style="fill:#606060;" d="M60.513,58.705c-0.218,0-0.394-0.176-0.394-0.394V24.045c0-0.218,0.176-0.394,0.394-0.394
		s0.394,0.176,0.394,0.394v34.266C60.907,58.529,60.731,58.705,60.513,58.705z"/>
</g>
<g>
	<path style="fill:#606060;" d="M60.8,24.439c-0.065,0-0.13-0.016-0.191-0.049L30.979,8.025c-0.191-0.105-0.26-0.345-0.154-0.536
		c0.105-0.19,0.345-0.26,0.536-0.154L60.991,23.7c0.19,0.105,0.26,0.345,0.154,0.536C61.073,24.366,60.939,24.439,60.8,24.439z"/>
</g>
<g>
	<path style="fill:#606060;" d="M50.277,30.621c-0.065,0-0.132-0.016-0.193-0.051L20.573,13.965c-0.19-0.107-0.257-0.347-0.15-0.537
		c0.107-0.19,0.347-0.258,0.537-0.15l29.511,16.605c0.19,0.107,0.257,0.347,0.15,0.537C50.548,30.548,50.414,30.621,50.277,30.621z"
		/>
</g>
<g>
	<path style="fill:#606060;" d="M18.884,25.193c-0.139,0-0.273-0.073-0.345-0.203c-0.106-0.191-0.037-0.431,0.154-0.536L48.72,7.833
		c0.192-0.106,0.431-0.037,0.536,0.154c0.106,0.191,0.036,0.431-0.154,0.536L19.074,25.144
		C19.014,25.177,18.948,25.193,18.884,25.193z"/>
</g>
<g>
	<path style="fill:#606060;" d="M29.15,30.621c-0.138,0-0.272-0.072-0.344-0.201c-0.107-0.19-0.04-0.43,0.15-0.537l29.511-16.605
		c0.189-0.107,0.43-0.04,0.537,0.15c0.107,0.19,0.04,0.43-0.15,0.537L29.343,30.57C29.282,30.604,29.216,30.621,29.15,30.621z"/>
</g>
<g>
	<g>
		<circle style="fill:#606060;" cx="39.6" cy="35.099" r="3.97"/>
		<path style="fill:#606060;" d="M39.6,39.463c-2.406,0-4.364-1.958-4.364-4.364c0-2.406,1.958-4.364,4.364-4.364
			c2.407,0,4.365,1.958,4.365,4.364C43.965,37.505,42.007,39.463,39.6,39.463z M39.6,31.523c-1.972,0-3.575,1.604-3.575,3.575
			c0,1.971,1.604,3.575,3.575,3.575s3.576-1.604,3.576-3.575C43.176,33.127,41.571,31.523,39.6,31.523z"/>
	</g>
	<g>
		<path style="fill:#606060;" d="M39.6,77.997c-0.436,0-0.789-0.353-0.789-0.789v-42.11c0-0.436,0.353-0.789,0.789-0.789
			s0.789,0.353,0.789,0.789v42.11C40.388,77.644,40.036,77.997,39.6,77.997z"/>
	</g>
	<g>
		<polygon style="fill:#606060;" points="39.511,74.526 42.609,74.526 41.06,77.209 39.511,79.891 37.963,77.209 36.414,74.526 		
			"/>
	</g>
</g>
<g>
	<g>
		<path style="fill:#606060;" d="M41.037,36.067c-0.273,0-0.538-0.141-0.684-0.394c-0.218-0.377-0.089-0.86,0.289-1.078
			l35.355-20.413c0.376-0.218,0.859-0.089,1.078,0.289c0.218,0.377,0.089,0.86-0.289,1.078L41.431,35.961
			C41.307,36.033,41.171,36.067,41.037,36.067z"/>
	</g>
	<g>
		<polygon style="fill:#606060;" points="75.304,15.518 73.796,12.813 76.893,12.859 79.99,12.905 78.401,15.564 76.813,18.223 		
			"/>
	</g>
</g>
<g>
	<g>
		<path style="fill:#606060;" d="M39.51,36.661c-0.131,0-0.264-0.033-0.387-0.102L4.108,16.799
			c-0.379-0.214-0.513-0.695-0.299-1.075c0.215-0.379,0.695-0.511,1.075-0.299l35.015,19.76c0.38,0.214,0.514,0.695,0.3,1.075
			C40.053,36.517,39.785,36.661,39.51,36.661z"/>
	</g>
	<g>
		<polygon style="fill:#606060;" points="4.698,16.431 6.206,13.726 3.109,13.773 0.012,13.82 1.601,16.478 3.19,19.137 		"/>
	</g>
</g>
</svg>
