<?xml version="1.0" encoding="iso-8859-1"?>
<!-- Generator: Adobe Illustrator 18.1.0, SVG Export Plug-In . SVG Version: 6.00 Build 0)  -->
<svg version="1.1" id="&#x5716;&#x5C64;_1" xmlns="http://www.w3.org/2000/svg" xmlns:xlink="http://www.w3.org/1999/xlink" x="0px"
	 y="0px" width="80px" height="80px" viewBox="0 0 80 80" style="enable-background:new 0 0 80 80;" xml:space="preserve">
<g>
	<path style="fill:#8E8E8E;" d="M78.258,70.877l-0.06-53.409c0,0,1.378-5.246-9.113-5.246c-7.791,0-39.717,0-55.634,0V3.171
		c0,0-9.113-0.424-9.113,4.239c0,0.676,0,2.388,0,4.812c0,14.284,0,53.472,0,53.472s0.318,5.183,5.775,5.183
		c3.391,0,41.175,0,58.972,0v9.113c0,0,9.113,0.424,9.113-4.239c0-0.682,0-2.418,0-4.875C78.235,70.877,78.258,70.877,78.258,70.877
		z"/>
</g>
<g>
	<path style="fill:#FFFFFF;" d="M76.153,14.97c0,0,1.378-5.246-9.113-5.246c-7.791,0-39.715,0-55.634,0
		c-8.425,0-9.114-2.663-9.114-4.812v4.812v53.472c0,0,0.318,5.183,5.775,5.183c4.451,0,68.146,0,68.146,0L76.153,14.97z"/>
	<path style="fill:#606060;" d="M76.212,68.929H8.067c-5.907,0-6.321-5.642-6.324-5.699L1.742,4.913c0-0.304,0.246-0.55,0.55-0.55
		s0.55,0.246,0.55,0.55c0,1.489,0,4.262,8.564,4.262H67.04c4.472,0,7.458,0.932,8.877,2.771c1.043,1.353,0.856,2.736,0.786,3.084
		l0.059,53.348c0,0.146-0.058,0.287-0.161,0.39C76.498,68.871,76.358,68.929,76.212,68.929z M2.842,8.113v55.084
		c0.011,0.156,0.365,4.632,5.226,4.632h67.594l-0.058-52.858c0-0.047,0.006-0.095,0.018-0.14c0.01-0.042,0.266-1.139-0.592-2.234
		c-0.831-1.059-2.891-2.322-7.99-2.322H11.406C6.51,10.275,4.049,9.378,2.842,8.113z"/>
</g>
<g>
	<path style="fill:#FFFFFF;" d="M11.405,58.534V0.674c0,0-9.113-0.424-9.113,4.239s0,58.284,0,58.284S3.352,58.534,11.405,58.534z"
		/>
	<path style="fill:#606060;" d="M2.292,63.744c-0.021,0-0.043-0.001-0.065-0.003c-0.277-0.033-0.485-0.266-0.485-0.545V4.913
		c0-5.249,9.691-4.789,9.689-4.788c0.293,0.014,0.524,0.256,0.524,0.549v57.86c0,0.304-0.246,0.55-0.55,0.55
		c-7.467,0-8.536,4.065-8.578,4.238C2.767,63.571,2.543,63.744,2.292,63.744z M10.824,1.214c-1.873,0-7.982,0.267-7.982,3.699
		v56.174c1.151-1.375,3.464-2.976,8.013-3.095V1.214C10.844,1.214,10.835,1.214,10.824,1.214z"/>
</g>
<g>
	<path style="fill:#FFFFFF;" d="M67.04,19.633v57.86c0,0,9.113,0.424,9.113-4.239s0-58.284,0-58.284S75.094,19.633,67.04,19.633z"/>
	<path style="fill:#606060;" d="M67.622,78.052c0,0,0,0-0.001,0c-0.381,0-0.607-0.011-0.607-0.011
		c-0.293-0.013-0.524-0.256-0.524-0.549V19.633c0-0.304,0.246-0.55,0.55-0.55c7.527,0,8.568-4.192,8.577-4.234
		c0.061-0.272,0.322-0.452,0.597-0.425c0.278,0.032,0.489,0.267,0.489,0.547v58.284c0,1.346-0.678,3.154-3.903,4.13
		C70.877,77.965,68.731,78.052,67.622,78.052z M67.59,76.952c0.012,0,0.032,0.002,0.032,0c1.047,0,3.072-0.081,4.859-0.621
		c2.072-0.626,3.122-1.662,3.122-3.077V17.08c-1.151,1.375-3.464,2.976-8.013,3.095V76.952z"/>
</g>
<g>
	<g>
		<g>
			<rect x="21.949" y="22.222" style="fill:#FFFFFF;" width="34.917" height="34.917"/>
		</g>
		<g>
			<path style="fill:#606060;" d="M56.867,57.775H21.949c-0.351,0-0.636-0.284-0.636-0.636V22.221c0-0.351,0.284-0.636,0.636-0.636
				h34.918c0.351,0,0.636,0.284,0.636,0.636v34.918C57.503,57.491,57.219,57.775,56.867,57.775z M22.585,56.504h33.646V22.857
				H22.585V56.504z"/>
		</g>
	</g>
	<g>
		<g>
			<path style="fill:#606060;" d="M56.768,40.309H43.201c-0.349,0-0.632-0.283-0.632-0.632c0-0.349,0.283-0.632,0.632-0.632h13.567
				c0.349,0,0.632,0.283,0.632,0.632C57.401,40.026,57.118,40.309,56.768,40.309z"/>
		</g>
	</g>
	<g>
		<g>
			<path style="fill:#606060;" d="M35.638,40.309h-13.59c-0.349,0-0.632-0.283-0.632-0.632c0-0.349,0.283-0.632,0.632-0.632h13.59
				c0.349,0,0.632,0.283,0.632,0.632C36.27,40.026,35.988,40.309,35.638,40.309z"/>
		</g>
	</g>
	<g>
		<g>
			<path style="fill:#606060;" d="M35.638,47.452c-0.349,0-0.632-0.283-0.632-0.632v-7.143c0-0.349,0.283-0.632,0.632-0.632
				s0.632,0.283,0.632,0.632v7.143C36.27,47.17,35.988,47.452,35.638,47.452z"/>
		</g>
	</g>
	<g>
		<g>
			<path style="fill:#606060;" d="M35.638,57.669c-0.349,0-0.632-0.283-0.632-0.632v-6.954c0-0.349,0.283-0.632,0.632-0.632
				s0.632,0.283,0.632,0.632v6.954C36.27,57.387,35.988,57.669,35.638,57.669z"/>
		</g>
	</g>
</g>
</svg>
