<?xml version="1.0" encoding="iso-8859-1"?>
<!-- Generator: Adobe Illustrator 18.1.0, SVG Export Plug-In . SVG Version: 6.00 Build 0)  -->
<svg version="1.1" id="&#x5716;&#x5C64;_1" xmlns="http://www.w3.org/2000/svg" xmlns:xlink="http://www.w3.org/1999/xlink" x="0px"
	 y="0px" width="80px" height="80px" viewBox="0 0 80 80" style="enable-background:new 0 0 80 80;" xml:space="preserve">
<g>
	<polygon style="fill:#8E8E8E;" points="71.091,61.696 71.091,52.544 51.77,52.544 42.11,52.544 42.11,43.392 22.789,43.392 
		22.789,52.544 13.129,52.544 13.129,61.696 2.621,61.696 2.621,70.848 13.129,70.848 13.129,80 32.45,80 51.77,80 71.091,80 
		71.091,70.848 79.904,70.848 79.904,61.696 	"/>
</g>
<g>
	<rect x="10.872" y="68.385" style="fill:#FFFFFF;" width="19.321" height="9.152"/>
	<path style="fill:#606060;" d="M30.193,77.89H10.872c-0.195,0-0.352-0.158-0.352-0.352v-9.153c0-0.195,0.158-0.352,0.352-0.352
		h19.321c0.195,0,0.352,0.158,0.352,0.352v9.153C30.545,77.732,30.388,77.89,30.193,77.89z M11.225,77.185h18.616v-8.448H11.225
		V77.185z"/>
</g>
<g>
	<rect x="30.193" y="68.385" style="fill:#FFFFFF;" width="19.321" height="9.152"/>
	<path style="fill:#606060;" d="M49.514,77.89H30.193c-0.195,0-0.352-0.158-0.352-0.352v-9.153c0-0.195,0.158-0.352,0.352-0.352
		h19.321c0.195,0,0.352,0.158,0.352,0.352v9.153C49.867,77.732,49.709,77.89,49.514,77.89z M30.545,77.185h18.617v-8.448H30.545
		V77.185z"/>
</g>
<g>
	<rect x="19.685" y="59.233" style="fill:#FFFFFF;" width="19.321" height="9.152"/>
	<path style="fill:#606060;" d="M39.007,68.737H19.685c-0.195,0-0.352-0.158-0.352-0.352v-9.152c0-0.195,0.158-0.352,0.352-0.352
		h19.321c0.195,0,0.352,0.158,0.352,0.352v9.152C39.359,68.58,39.201,68.737,39.007,68.737z M20.038,68.033h18.617v-8.447H20.038
		V68.033z"/>
</g>
<g>
	<rect x="39.006" y="59.233" style="fill:#FFFFFF;" width="19.321" height="9.152"/>
	<path style="fill:#606060;" d="M58.327,68.737h-19.32c-0.195,0-0.352-0.158-0.352-0.352v-9.152c0-0.195,0.158-0.352,0.352-0.352
		h19.32c0.195,0,0.352,0.158,0.352,0.352v9.152C58.679,68.58,58.522,68.737,58.327,68.737z M39.359,68.033h18.616v-8.447H39.359
		V68.033z"/>
</g>
<g>
	<rect x="0.365" y="59.233" style="fill:#FFFFFF;" width="19.321" height="9.152"/>
	<path style="fill:#606060;" d="M19.685,68.737H0.365c-0.195,0-0.352-0.158-0.352-0.352v-9.152c0-0.195,0.158-0.352,0.352-0.352
		h19.321c0.195,0,0.352,0.158,0.352,0.352v9.152C20.038,68.58,19.88,68.737,19.685,68.737z M0.717,68.033h18.616v-8.447H0.717
		V68.033z"/>
</g>
<g>
	<rect x="58.327" y="59.233" style="fill:#FFFFFF;" width="19.321" height="9.152"/>
	<path style="fill:#606060;" d="M77.648,68.737H58.327c-0.195,0-0.352-0.158-0.352-0.352v-9.152c0-0.195,0.158-0.352,0.352-0.352
		h19.321c0.195,0,0.352,0.158,0.352,0.352v9.152C78,68.58,77.843,68.737,77.648,68.737z M58.679,68.033h18.617v-8.447H58.679V68.033
		z"/>
</g>
<g>
	<rect x="20.533" y="40.93" style="fill:#FFFFFF;" width="19.321" height="9.152"/>
	<path style="fill:#606060;" d="M39.853,50.434h-19.32c-0.195,0-0.352-0.158-0.352-0.352v-9.152c0-0.195,0.158-0.352,0.352-0.352
		h19.32c0.195,0,0.352,0.158,0.352,0.352v9.152C40.206,50.276,40.048,50.434,39.853,50.434z M20.885,49.729h18.616v-8.448H20.885
		V49.729z"/>
</g>
<g>
	<rect x="49.514" y="68.385" style="fill:#FFFFFF;" width="19.321" height="9.152"/>
	<path style="fill:#606060;" d="M68.835,77.89h-19.32c-0.195,0-0.352-0.158-0.352-0.352v-9.153c0-0.195,0.158-0.352,0.352-0.352
		h19.32c0.195,0,0.352,0.158,0.352,0.352v9.153C69.187,77.732,69.029,77.89,68.835,77.89z M49.867,77.185h18.616v-8.448H49.867
		V77.185z"/>
</g>
<g>
	<rect x="10.872" y="50.081" style="fill:#FFFFFF;" width="19.321" height="9.152"/>
	<path style="fill:#606060;" d="M30.193,59.586H10.872c-0.195,0-0.352-0.158-0.352-0.352v-9.152c0-0.195,0.158-0.352,0.352-0.352
		h19.321c0.195,0,0.352,0.158,0.352,0.352v9.152C30.545,59.428,30.388,59.586,30.193,59.586z M11.225,58.881h18.616v-8.447H11.225
		V58.881z"/>
</g>
<g>
	<rect x="30.193" y="50.081" style="fill:#FFFFFF;" width="19.321" height="9.152"/>
	<path style="fill:#606060;" d="M49.514,59.586H30.193c-0.195,0-0.352-0.158-0.352-0.352v-9.152c0-0.195,0.158-0.352,0.352-0.352
		h19.321c0.195,0,0.352,0.158,0.352,0.352v9.152C49.867,59.428,49.709,59.586,49.514,59.586z M30.545,58.881h18.617v-8.447H30.545
		V58.881z"/>
</g>
<g>
	<rect x="49.514" y="50.081" style="fill:#FFFFFF;" width="19.321" height="9.152"/>
	<path style="fill:#606060;" d="M68.835,59.586h-19.32c-0.195,0-0.352-0.158-0.352-0.352v-9.152c0-0.195,0.158-0.352,0.352-0.352
		h19.32c0.195,0,0.352,0.158,0.352,0.352v9.152C69.187,59.428,69.029,59.586,68.835,59.586z M49.867,58.881h18.616v-8.447H49.867
		V58.881z"/>
</g>
<g>
	<rect x="35.236" y="32.517" style="fill:#606060;" width="22.1" height="0.948"/>
</g>
<g>
	
		<rect x="55.263" y="29.165" transform="matrix(0.6255 -0.7802 0.7802 0.6255 -0.854 57.6378)" style="fill:#606060;" width="8.697" height="1.087"/>
</g>
<g>
	<rect x="61.896" y="25.976" style="fill:#606060;" width="7.302" height="1.124"/>
</g>
<g>
	<path style="fill:#606060;" d="M76.788,28.721h-9.106c-1.174,0-2.135-0.961-2.135-2.135v-0.018c0-1.174,0.961-2.135,2.135-2.135
		h9.106c1.174,0,2.135,0.961,2.135,2.135v0.018C78.923,27.76,77.962,28.721,76.788,28.721z"/>
</g>
<g>
	<path style="fill:#606060;" d="M55.174,32.966H36.347l-0.1-0.187c-0.248-0.47-0.374-0.963-0.374-1.465
		c0-1.302,0.821-2.471,2.029-2.935c0.05-1.153,0.746-2.181,1.791-2.667c-0.046-0.259-0.069-0.515-0.069-0.767
		c0-2.488,2.024-4.512,4.512-4.512c1.652,0,3.141,0.883,3.939,2.32c1.417,0.02,2.693,0.919,3.202,2.228
		c1.456,0.047,2.719,0.969,3.208,2.339c1.113,0.627,1.798,1.791,1.798,3.074c0,0.926-0.358,1.802-1.007,2.467L55.174,32.966z
		 M46.798,32.261h8.075c0.457-0.518,0.708-1.176,0.708-1.868c0-1.065-0.592-2.029-1.544-2.516l-0.132-0.067l-0.044-0.141
		c-0.37-1.188-1.454-1.985-2.699-1.985L50.77,25.7l-0.078-0.261c-0.35-1.167-1.446-1.982-2.664-1.982l-0.318,0.02l-0.158-0.209
		c-0.647-1.314-1.956-2.131-3.414-2.131c-2.1,0-3.808,1.708-3.808,3.808c0,0.292,0.037,0.595,0.111,0.899l0.075,0.311l-0.302,0.105
		c-0.962,0.335-1.61,1.239-1.61,2.249c0.007,0.046,0.01,0.076,0.012,0.108l0.009,0.275l-0.264,0.076
		c-1.05,0.3-1.782,1.264-1.782,2.346c0,0.321,0.068,0.639,0.202,0.948h9.688l0.167-0.129L46.798,32.261z"/>
</g>
</svg>
