<?xml version="1.0" encoding="iso-8859-1"?>
<!-- Generator: Adobe Illustrator 18.1.0, SVG Export Plug-In . SVG Version: 6.00 Build 0)  -->
<svg version="1.1" id="&#x5716;&#x5C64;_1" xmlns="http://www.w3.org/2000/svg" xmlns:xlink="http://www.w3.org/1999/xlink" x="0px"
	 y="0px" width="80px" height="80px" viewBox="0 0 80 80" style="enable-background:new 0 0 80 80;" xml:space="preserve">
<path style="fill:#8E8E8E;" d="M70.211,38.048h5.186L63.43,14.604H52.958l-0.08-3.409c1.464,1.304,3.1-0.242,1.793-1.141
	c-0.585-0.402-13.181-9.537-13.181-9.537L27.328,10.763L30.021,9.8v4.804H19.948L6.625,38.048h5.13v34.549h-5.13V80h68.772v-7.403
	h-5.186V38.048z"/>
<polygon style="fill:#FFFFFF;stroke:#606060;stroke-linecap:round;stroke-linejoin:round;stroke-miterlimit:10;" points="
	73.375,36.917 4.603,36.917 17.926,14.179 61.407,14.179 "/>
<rect x="9.733" y="36.917" style="fill:#FFFFFF;stroke:#606060;stroke-linecap:round;stroke-linejoin:round;stroke-miterlimit:10;" width="58.456" height="33.509"/>
<rect x="4.603" y="70.426" style="fill:#FFFFFF;stroke:#606060;stroke-linecap:round;stroke-linejoin:round;stroke-miterlimit:10;" width="68.772" height="7.18"/>
<rect x="19.322" y="49.583" style="fill:#FFFFFF;stroke:#606060;stroke-linecap:round;stroke-linejoin:round;stroke-miterlimit:10;" width="18.151" height="9.983"/>
<line style="fill:none;stroke:#606060;stroke-linecap:round;stroke-linejoin:round;stroke-miterlimit:10;" x1="25.415" y1="49.583" x2="25.415" y2="59.566"/>
<line style="fill:none;stroke:#606060;stroke-linecap:round;stroke-linejoin:round;stroke-miterlimit:10;" x1="31.12" y1="49.583" x2="31.12" y2="59.566"/>
<line style="fill:none;stroke:#606060;stroke-linecap:round;stroke-linejoin:round;stroke-miterlimit:10;" x1="31.12" y1="54.639" x2="37.473" y2="54.639"/>
<line style="fill:none;stroke:#606060;stroke-linecap:round;stroke-linejoin:round;stroke-miterlimit:10;" x1="25.415" y1="54.639" x2="19.322" y2="54.639"/>
<polygon style="fill:#FFFFFF;stroke:#606060;stroke-linecap:round;stroke-linejoin:round;stroke-miterlimit:10;" points="
	50.936,9.374 38.961,3.074 27.998,9.294 27.998,21.923 50.936,21.923 "/>
<polygon style="fill:#FFFFFF;stroke:#606060;stroke-linecap:round;stroke-linejoin:round;stroke-miterlimit:10;" points="
	25.306,10.454 39.467,0.516 53.629,10.454 38.961,5.717 "/>
<rect x="33.783" y="10.953" style="fill:#FFFFFF;stroke:#606060;stroke-linecap:round;stroke-linejoin:round;stroke-miterlimit:10;" width="10.97" height="6.981"/>
<line style="fill:none;stroke:#606060;stroke-linecap:round;stroke-linejoin:round;stroke-miterlimit:10;" x1="39.268" y1="10.953" x2="39.268" y2="17.934"/>
<rect x="45.598" y="49.583" style="fill:none;stroke:#606060;stroke-linecap:round;stroke-linejoin:round;stroke-miterlimit:10;" width="14.765" height="20.843"/>
<line style="fill:none;stroke:#606060;stroke-linecap:round;stroke-linejoin:round;stroke-miterlimit:10;" x1="51.165" y1="61.75" x2="48.742" y2="61.75"/>
</svg>
